# xmcd CD database file
#
# Track frame offsets:
#	150
#	4374
#	16878
#	28223
#	40970
#	53539
#	63096
#	79489
#	89136
#	97131
#
# Disc length: 1501 seconds
#
# Revision: 0
# Processed by: cddbd v1.5.1PL0 Copyright (c) Steve Scherf et al.
# Submitted via: CDex 1.50beta10
#
DISCID=8105db0a
DTITLE=Hank Williams Sr - I Saw The Light (The Health and Happiness Show Recorded Live In Nashville)
DYEAR=1949
DGENRE=Country
TTITLE0=happy rovin' cowboy
TTITLE1=lovesick blues
TTITLE2=i'm a long gone daddy
TTITLE3=there'll be no teardrops tonight
TTITLE4=you're gonna change (or i'm gonna leave)
TTITLE5=i'll have a new body (i'll have a new life)
TTITLE6=tramp on the street
TTITLE7=i saw the light
TTITLE8=i've just told mama goodbye
TTITLE9=wedding bells
EXTD=YEAR: 1949
EXTT0=
EXTT1=
EXTT2=
EXTT3=
EXTT4=
EXTT5=
EXTT6=
EXTT7=
EXTT8=
EXTT9=
PLAYORDER=
